<svg width="9" height="13" viewBox="0 0 9 13" fill="none" xmlns="http://www.w3.org/2000/svg">
<path d="M1.66667 11.6654C2.03486 11.6654 2.33333 11.3669 2.33333 10.9987C2.33333 10.6305 2.03486 10.332 1.66667 10.332C1.29848 10.332 1 10.6305 1 10.9987C1 11.3669 1.29848 11.6654 1.66667 11.6654Z" stroke="#9CA3AF" stroke-width="1.5" stroke-linecap="round" stroke-linejoin="round"/>
<path d="M1.66667 6.9974C2.03486 6.9974 2.33333 6.69892 2.33333 6.33073C2.33333 5.96254 2.03486 5.66406 1.66667 5.66406C1.29848 5.66406 1 5.96254 1 6.33073C1 6.69892 1.29848 6.9974 1.66667 6.9974Z" stroke="#9CA3AF" stroke-width="1.5" stroke-linecap="round" stroke-linejoin="round"/>
<path d="M1.66667 2.33333C2.03486 2.33333 2.33333 2.03486 2.33333 1.66667C2.33333 1.29848 2.03486 1 1.66667 1C1.29848 1 1 1.29848 1 1.66667C1 2.03486 1.29848 2.33333 1.66667 2.33333Z" stroke="#9CA3AF" stroke-width="1.5" stroke-linecap="round" stroke-linejoin="round"/>
<path d="M6.66667 11.6654C7.03486 11.6654 7.33333 11.3669 7.33333 10.9987C7.33333 10.6305 7.03486 10.332 6.66667 10.332C6.29848 10.332 6 10.6305 6 10.9987C6 11.3669 6.29848 11.6654 6.66667 11.6654Z" stroke="#9CA3AF" stroke-width="1.5" stroke-linecap="round" stroke-linejoin="round"/>
<path d="M6.66667 6.9974C7.03486 6.9974 7.33333 6.69892 7.33333 6.33073C7.33333 5.96254 7.03486 5.66406 6.66667 5.66406C6.29848 5.66406 6 5.96254 6 6.33073C6 6.69892 6.29848 6.9974 6.66667 6.9974Z" stroke="#9CA3AF" stroke-width="1.5" stroke-linecap="round" stroke-linejoin="round"/>
<path d="M6.66667 2.33333C7.03486 2.33333 7.33333 2.03486 7.33333 1.66667C7.33333 1.29848 7.03486 1 6.66667 1C6.29848 1 6 1.29848 6 1.66667C6 2.03486 6.29848 2.33333 6.66667 2.33333Z" stroke="#9CA3AF" stroke-width="1.5" stroke-linecap="round" stroke-linejoin="round"/>
</svg>
