<svg width="22" height="18" viewBox="0 0 22 18" fill="none" xmlns="http://www.w3.org/2000/svg">
<path d="M9.79922 4.2001C9.79922 6.18832 8.18744 7.8001 6.19922 7.8001C4.21099 7.8001 2.59922 6.18832 2.59922 4.2001C2.59922 2.21187 4.21099 0.600098 6.19922 0.600098C8.18744 0.600098 9.79922 2.21187 9.79922 4.2001Z" fill="#0E7490"/>
<path d="M19.3992 4.2001C19.3992 6.18832 17.7874 7.8001 15.7992 7.8001C13.811 7.8001 12.1992 6.18832 12.1992 4.2001C12.1992 2.21187 13.811 0.600098 15.7992 0.600098C17.7874 0.600098 19.3992 2.21187 19.3992 4.2001Z" fill="#0E7490"/>
<path d="M14.5142 17.4001C14.5702 17.0082 14.5992 16.6075 14.5992 16.2001C14.5992 14.2379 13.9264 12.4328 12.7989 11.003C13.6815 10.4924 14.7062 10.2001 15.7992 10.2001C19.1129 10.2001 21.7992 12.8864 21.7992 16.2001V17.4001H14.5142Z" fill="#0E7490"/>
<path d="M6.19922 10.2001C9.51293 10.2001 12.1992 12.8864 12.1992 16.2001V17.4001H0.199219V16.2001C0.199219 12.8864 2.88551 10.2001 6.19922 10.2001Z" fill="#0E7490"/>
</svg>
